<?xml version="1.0" encoding="UTF-8"?>
<svg id="Layer_1" data-name="Layer 1" xmlns="http://www.w3.org/2000/svg" viewBox="0 0 588 167">
  <defs>
    <style>
      .cls-1 {
        fill: #5edcee;
      }

      .cls-2 {
        stroke-width: 3px;
      }

      .cls-2, .cls-3, .cls-4, .cls-5, .cls-6, .cls-7 {
        stroke: #fff;
        stroke-miterlimit: 10;
      }

      .cls-2, .cls-7 {
        fill: #34c9fe;
      }

      .cls-3 {
        fill: #4e9eed;
      }

      .cls-3, .cls-4, .cls-6, .cls-7 {
        stroke-width: 2px;
      }

      .cls-4 {
        fill: #75e5ee;
      }

      .cls-5 {
        fill: #35c8fd;
      }

      .cls-8 {
        fill: #f9f9f9;
      }

      .cls-6 {
        fill: #93a7ac;
      }
    </style>
  </defs>
  <g>
    <path class="cls-8" d="m11.01,134.88c-4.94-1.71-8.65-5.58-9.6-10.23-.17-.87-.3-4.96-.29-8.68v-7.13s.57,1.64.57,1.64c1.27,3.72,4.63,7.13,8.34,8.37,2.2.84,5.89,1.12,7.73.62,1.27-.31,99.06-46.81,106.41-50.84,4.02-2.02,5.95-4.68,7.17-7.78.46-1.3.74-.97.64,6.85-.07,7.75-.11,8.37-.77,9.61-1.08,2.36-2.69,4.34-4.63,5.58-1.73,1.21-104.88,50.84-107.94,51.77-2.04.74-5.89.74-8.04.02l.41.19Z"/>
    <path class="cls-4" d="m10.7,120.62c-4.34-1.46-7.72-4.59-8.95-8.56-.62-1.96-.62-2.79-.62-51.15,0-31.93.11-49.6.31-50.84.74-4,3.42-7.38,7.11-8.9C10.25.38,11.11.2,13.19.07c1.48-.07,3.08.04,3.72.25,1.14.33,105.25,47.43,108.95,48.98,4.65,2.38,7.42,7.97,5.88,12.87-1.39,4.9-3.42,6.45-11.76,10.76-27.2,12.93-101.24,48.05-102.18,48.36-2.55.71-6.12-.14-7.11-.67v.02Z"/>
    <path class="cls-1" d="m1.21,110.21l-.08-43.71c-.06-28.52.02-44.33.23-45.57.98-5.27,5.22-9.3,10.45-10.23,1.42-.23,2.55-.22,3.69.01,1.29.24,16.62,7.13,54.08,24.49,28.91,13.33,54.08,23.53,55.3,24.15,2.09.99,6.15,4.34,6.15,5.27,0,.27-.41,2.33-1.4,3.29-2.12,2.08,1.98-.05-61.15,30.35-27.07,13.02-49.76,22.94-50.71,23.25-1.69.47-5.26-.17-6.98-.87-2.01-.66-3.06-1.21-4.64-2.42-2.1-1.41-3.53-3.85-4.24-5.61-.3-.79-.39-1.61-.71-2.39h.02Z"/>
    <path class="cls-5" d="m11.01,164.33c-4.96-1.67-8.67-5.49-9.58-10.04-.17-.91-.04-7.72-.03-16.55-.17-12.81-.06-14.32.27-13.63,1.45,4.56,6.1,8.27,11.34,8.86,4.32.64,1.36,1.86,57.26-24.34,28.14-13.08,52.67-24.65,53.89-25.54,3.4-1.73,4.23-3.94,6.71-6.91l1.1-1.92.3,15.81c.3,15.81-.1,16.12-.77,17.33-1.08,2.31-2.69,4.25-4.62,5.49-1.73,1.19-104.73,49.91-107.79,50.84-2.04.73-5.88.73-8.02.02l-.04.59Z"/>
    <path class="cls-3" d="m1.51,146.14c.02-6.2-.17-7.22.21-5.98,1.25,4.03,4.44,8.03,8.48,9.27,1.96.56,5.6.65,7.47.15,1.56-.43,106.87-50.53,109.01-51.77,2.52-1.58,4.69-4.34,5.6-7.13.14-.43.22,2.79.18,7.13-.06,7.44-.11,8.06-.78,9.61-1.19,2.95-3.74,5.27-7.78,7.44-1.84.93-26.49,12.71-54.81,26.04l-51.44,24.49-2.96.1c-2.24.07-3.43-.04-4.69-.47-4.2-2.4-7.59-5.83-8.45-9.67-.09-3.16-.05-6.45-.05-9.2h0Z"/>
  </g>
  <path class="cls-2" d="m154.16,77.46V30.03h18.38l.02,18.6c.01,13.02.11,18.29.33,17.67,1.24-3.04,1.72-4.03,2.83-4.96,2.5-2.36,2.32-2.33,11.44-2.33,7.84,0,8.12.04,10.26.71,6.63,2.36,11.44,8.37,12.37,15.81.15,1.21.29,13.02.29,26.04v23.87s-18.37,0-18.37,0l-.17-49.6-1-2.08c-1.66-3.41-4.84-5.58-8.43-5.58s-6.63,2.05-8.43,5.58l-1,2.08-.17,49.6h-18.38l.03-47.99Zm83.08,47.12c-3.32-.9-5.43-2.23-8.12-4.96-2.8-2.91-4.22-5.27-4.84-8.68-.66-2.85-.66-34.72,0-37.51.78-3.41,2.35-6.2,5.12-8.99,2.65-2.67,4.84-4.03,8.12-4.96,2.65-.71,25.33-.71,28.02.01,5.12,1.36,10.26,5.89,12.37,10.85,1.39,3.41,1.51,4.96,1.51,22.01s-.09,18.91-2.05,22.94c-2.11,4.34-6.94,8.37-11.75,9.61-2.59.68-25.61.68-28.02,0l-.36-.32Zm18.38-9.92c1.81-.96,3.63-2.85,4.53-4.96.63-1.4.63-1.74.63-17.98v-16.74l-.84-1.77c-.93-1.92-2.5-3.72-4.53-4.65-1.87-1.02-5.74-1.02-7.84.02-1.81.93-3.63,2.76-4.53,4.65l-.69,1.46-.09,16.12c-.07,11.47,0,16.74.25,17.36.78,2.88,3.01,5.27,6.01,6.51,1.78.71,5.43.43,7.22-.56l-.13.54Zm37.51-37.2V30.03h18.38v95.17h-18.38v-47.74Zm45.88,47.12c-6.01-1.8-10.85-6.82-12.65-13.33-.51-1.71-.54-3.1-.54-19.22s.05-17.67.54-19.22c1.57-5.27,5.12-9.61,9.64-11.78,3.91-1.89,4.53-1.95,18.69-1.86,12.06.11,12.65.13,14.48.81,5.12,1.95,9.64,6.51,11.16,11.78l.69,2.08v36.89l-.69,2.08c-1.78,5.27-6.01,9.92-11.16,11.78-1.84.71-2.14.71-15.07.78-11.75.07-13.27.02-15.07-.47l-.03-.31Zm17.79-9.3c2.23-.87,4.53-3.1,5.12-5.27.6-1.67.63-2.26.63-17.98s-.02-16.12-.63-17.67c-1.69-4.65-7.22-7.13-11.75-5.58-3.01,1.21-5.12,3.41-6.01,6.82-.39,1.55-.45,4.34-.36,17.36q.11,17.05,2.2,19.53c2.65,3.1,6.63,4.34,10.54,2.82l.27-.03Zm38.13-37.51V30.34h18.38v95.17h-18.38v-47.74Zm32.24,14.26v-33.17h18.38v66.34h-18.38v-33.17Zm32.24.02v-33.17h18.38v57.04l6.01-.1c5.43-.1,6.01-.16,7.22-.81,1.84-.93,3.32-2.51,4.53-4.34l.81-1.61.17-50.22h18.38v18.29c0,14.57-.09,18.91-.45,20.77-2.14,12.71-11.16,22.94-23.5,26.35-2.23.65-3.01.68-16.86.78l-14.48.11-.22-33.08Zm80.91,32.55c-6.32-1.77-11.44-7.13-13.27-13.64-.39-1.64-.45-4.34-.39-19.84l.09-17.98.84-2.17c2.05-5.27,6.01-9.3,11.16-11.47,1.84-.68,2.2-.71,14.48-.81,14.17-.12,14.76-.05,18.69,1.86,4.53,2.17,7.84,6.51,9.64,11.78.45,1.49.54,3.1.66,13.02l.12,11.16h-37.2v5.58c0,6.82.36,8.37,2.71,10.54,2.44,2.51,3.63,2.79,11.16,2.79s8.43-.29,10.85-2.33c1.51-1.33,3.01-4.34,3.01-6.2v-1.18h9.33l-.2,1.8c-.91,8.06-6.32,14.57-13.55,16.74-2.62.71-25.61.68-28.02,0l-.12.35Zm23.5-42.47c.12-6.82-.63-9.61-3.32-12.09-4.84-4.03-12.37-2.08-14.48,3.72-.54,1.49-.63,2.42-.63,7.44v5.58l18.69-.16-.27-4.49Zm-136.4-38.13v-4.65h18.38v9.3h-18.38v-4.65Z"/>
  <g>
    <path class="cls-6" d="m203.04,165.15c0-.24.37-2.39.79-4.65,1.22-6.51,3.66-21.39,3.66-21.7,0-.17.95-.3,2.14-.3,1.71,0,2.14.1,2.14.47,0,.56-.11.56,1.65-.03.98-.34,2.14-.47,3.66-.37,2.84.16,4.58,1.3,5.8,3.72.82,1.58.89,1.86.73,4.34-.23,3.72-1.1,5.89-3.36,8.37-1.34,1.36-2.35,2.08-3.66,2.54-2.11.81-4.89.87-6.41.2-.61-.26-1.19-.4-1.28-.3-.12.12-1.5,7.44-1.56,8.37,0,.04-.98.08-2.14.08-1.65,0-2.14-.1-2.14-.43l-.03-.29Zm13.44-12.09c1.59-.99,2.56-2.57,2.93-4.65.4-2.39.17-3.41-.98-4.65-.73-.74-1.13-.9-2.5-.9-3.36,0-5.8,2.88-5.8,7.13,0,1.36.73,2.73,1.74,3.41,1.7.51,3.45.52,4.61-.34h0Zm19.54,4.65c0-.43,3.05-17.98,3.36-18.6.13-.43.52-.56,2.26-.56s2.08.08,1.92.47c-.1.26-.11.47-.03.47s.73-.21,1.44-.47c.7-.25,2.17-.47,3.36-.47,2.2,0,2.2-.01,1.62,2.79l-.34,1.55h-1.74c-2.14,0-3.66.71-4.58,2.36-.7,1.02-.98,2.14-1.8,7.13l-.98,5.89h-2.08c-1.13,0-2.08-.14-2.08-.3l-.34-.26Zm28.4-.53c-3.05-1.67-4.27-4.96-3.36-9.61.7-3.72,2.84-6.51,5.8-8.06,2.02-1.05,5.5-1.3,7.33-.59,2.53.99,4.58,4.03,4.58,6.82,0,3.72-1.47,7.44-3.66,9.61-2.14,1.95-3.97,2.73-6.72,2.88-2,.13-3.01-.3-3.97-1.05Zm10.11-9.92c.34-2.88-1.04-4.65-3.66-4.65-1.62,0-2.72.5-3.97,1.77-1.22,1.36-1.53,2.14-1.71,4.65l-.17,2.29c1.3,1.58,2.77,2.23,4.03,2.14,1.37-.1,2.08-.34,2.93-1.02,1.5-1.24,2.35-3.57,2.55-5.18Zm19.51,9.92c-3.05-1.61-4.27-4.96-3.36-9.3.7-3.72,2.84-6.51,5.8-8.06,2.02-1.05,5.5-1.33,7.33-.59.64.27,1.28.43,1.4.34.13-.08.31-.78.43-1.55.1-.78.43-2.67.7-4.34l.49-2.79h2.14c2.05,0,2.14.03,1.98.68-.09.37-1.16,6.51-2.38,13.64l-2.23,13.02h-2.08c-1.65,0-2.08-.1-2.08-.47,0-.25-.03-.47-.08-.47-.04,0-.76.21-1.59.47-2.49.73-5.37.15-6.47-.59h-.02Zm7.63-4.65c1.34-1.02,2.2-2.82,2.47-5.27.34-2.88-1.04-4.65-3.66-4.65-1.62,0-2.72.5-3.97,1.77-1.16,1.27-1.44,1.95-1.65,4.34-.22,2.2.21,3.41,1.47,4.34,1.1.81,3.97.5,5.19-.62l.15.09Zm24.43,4.65c-1.19-.62-1.89-1.27-2.53-2.36-1.31-2.14-1.34-4.03-.2-10.54.52-2.98.95-5.58.95-5.58,0-.12.98-.22,2.17-.22h2.17l-.17.87c-1.01,5.27-1.8,10.85-1.62,11.78.12.5.67,1.3,1.19,1.83.89.84,1.13.9,2.69.78,1.98-.15,3.66-1.18,4.58-2.82.28-.56.95-3.41,1.5-6.51s1.04-5.58,1.13-5.58c.09-.09,1.04-.12,2.14-.07l1.95.09-3.36,19.22h-2.08c-1.65,0-2.08-.1-2.08-.47,0-.25-.03-.47-.08-.47-.04,0-.76.21-1.59.47-2.41.74-4.58.62-6.72-.4l-.04-.02Zm31.76.47c-1.77-.59-3.66-2.6-4.27-4.65-.46-1.58-.46-2.14-.16-4.34.89-5.89,4.58-9.92,9.77-10.23,3.36-.22,6.11,1.09,7.33,3.72l.58,1.18-3.97,1.89-1.13-1.21c-1.01-1.09-1.31-1.21-2.56-1.21-1.77,0-3.66.9-4.58,2.2-.37.53-.85,1.89-1.1,3.01-.52,2.45-.21,3.72,1.16,4.96,1.65,1.43,4.89.84,6.41-1.15q.49-.62,2.05.18c.85.43,1.65.93,1.74,1.12.31.53-2.53,3.1-4.27,4.03-1.98.93-5.19,1.21-7.02.62l.04-.11Zm30.23-.19c-2.56-1.61-2.84-2.85-1.83-8.68.43-2.54.89-4.96.98-5.27.16-.68.09-.68-2.05-.68h-2.2l.2-1.67c.31-2.64.29-2.64,2.75-2.73l2.17-.09.67-3.72c.37-2.05.67-3.72.7-3.72,0-.04.95-.08,2.11-.08h2.11l-.58,3.1c-.85,4.96-.95,4.65,1.53,4.65h2.11l-.26,1.49c-.55,3.07-.34,2.85-2.69,2.85-1.74,0-2.14.09-2.26.56-.43,1.52-1.47,8.37-1.37,9.3.1.9.15.9,2.05.99,1.83.09,1.92.13,1.77.78-.09.37-.25,1.33-.37,2.14l-.21,1.49h-2.17c-1.59,0-2.44-.16-3.05-.59l-.09-.11Zm20.76.4c0-.24,2.72-15.81,3.05-17.67l.31-1.61h2.11c2.05,0,2.11.03,1.95.68-.21.93-3.36,18.29-3.36,18.6,0,.11-.98.2-2.14.2s-2.14-.07-2.14-.16l.21-.05Zm23.51-.34c-2.44-.9-4.27-4.03-4.27-6.82,0-1.8,1.07-5.89,1.92-7.13,2.72-4.34,8.24-6.2,12.52-4.03,3.05,1.58,4.27,4.34,3.36,8.68-.67,4.34-2.78,7.13-6.11,8.99-2.05,1.02-5.19,1.24-7.33.5l-.09-.19Zm5.8-4.34c1.01-.53,2.35-1.86,2.87-2.85.25-.5.52-1.92.64-3.1l.17-2.26c-1.16-1.4-2.6-2.17-3.82-2.17-3.02,0-5.19,2.23-5.5,6.2-.25,1.92.4,3.72,1.65,4.34,1.43.44,3.05.6,3.97-.16h.01Zm18.93,4.65c0-.24,2.72-15.81,3.05-17.67l.31-1.61h2.14c1.77,0,2.11.08,1.98.47-.22.56-.06.56,1.5,0,1.74-.65,4.89-.59,6.41.11,1.8.84,3.36,2.85,3.97,4.96.34,1.52.27,2.26-.67,7.75l-1.04,6.2-2.05.09c-1.77.08-2.05.02-2.05-.43,0-.29.43-2.98.95-5.89.95-5.27.95-5.58.43-6.51-1.01-2.14-3.66-2.73-6.11-1.3-1.92,1.15-2.44,2.45-3.36,8.68-.52,2.98-.95,5.58-.95,5.58,0,.12-.98.22-2.14.22s-2.14-.07-2.14-.16l-.24-.49Z"/>
    <path class="cls-3" d="m204.27,157.71l4.4.4-1.34,7.66-2.05.1-2.49-.13,1.48-8.02Z"/>
    <path class="cls-7" d="m413.12,131.05l4.18.12-.68,4.68-4.24-.12.74-4.68Z"/>
  </g>
</svg>